HIERARCHY
ROOT Model
{
	OFFSET 0 0 0
	CHANNELS 6 Xposition Yposition Zposition Zrotation Xrotation Yrotation
	JOINT Model1
	{
		OFFSET 0 -2.25479 2.99383
		CHANNELS 3 Zrotation Xrotation Yrotation
		JOINT Model2
		{
			OFFSET 12.111 0 0
			CHANNELS 3 Zrotation Xrotation Yrotation
			JOINT Model3
			{
				OFFSET 11.5502 0 0
				CHANNELS 3 Zrotation Xrotation Yrotation
				JOINT Model4
				{
					OFFSET 11.781 0 0
					CHANNELS 3 Zrotation Xrotation Yrotation
					JOINT Model5
					{
						OFFSET 20.0601 0 0
						CHANNELS 3 Zrotation Xrotation Yrotation
						JOINT Model6
						{
							OFFSET 11.1962 0 0
							CHANNELS 3 Zrotation Xrotation Yrotation
							End Site
							{
								OFFSET 0 0 0
							}
						}
					}
					JOINT Model7
					{
						OFFSET 10.8223 0.417538 3.51114
						CHANNELS 3 Zrotation Xrotation Yrotation
						JOINT Model8
						{
							OFFSET -6.07943 0 0
							CHANNELS 3 Zrotation Xrotation Yrotation
							JOINT Model9
							{
								OFFSET -0.277412 10.39 -0.0512428
								CHANNELS 3 Zrotation Xrotation Yrotation
								JOINT Model10
								{
									OFFSET -3.4391 -0.282043 1.86678
									CHANNELS 3 Zrotation Xrotation Yrotation
									JOINT Model11
									{
										OFFSET 13.0269 0 0
										CHANNELS 3 Zrotation Xrotation Yrotation
										JOINT Model12
										{
											OFFSET 10.8866 0 0
											CHANNELS 3 Zrotation Xrotation Yrotation
											JOINT Model13
											{
												OFFSET 16.7317 0 0
												CHANNELS 3 Zrotation Xrotation Yrotation
												JOINT Model14
												{
													OFFSET 11.8292 0 0
													CHANNELS 3 Zrotation Xrotation Yrotation
													JOINT Model15
													{
														OFFSET 4.82751 -3.73566 -0.836517
														CHANNELS 3 Zrotation Xrotation Yrotation
														JOINT Model16
														{
															OFFSET 3.75311 -0.0582924 -0.0186462
															CHANNELS 3 Zrotation Xrotation Yrotation
															JOINT Model17
															{
																OFFSET 2.88689 0.0192337 0.014801
																CHANNELS 3 Zrotation Xrotation Yrotation
																End Site
																{
																	OFFSET 0 0 0
																}
															}
														}
													}
													JOINT Model18
													{
														OFFSET 9.72198 -3.06458 0.238766
														CHANNELS 3 Zrotation Xrotation Yrotation
														JOINT Model19
														{
															OFFSET 4.61131 0 0
															CHANNELS 3 Zrotation Xrotation Yrotation
															JOINT Model20
															{
																OFFSET 2.8969 -1.14441e-005 0
																CHANNELS 3 Zrotation Xrotation Yrotation
																End Site
																{
																	OFFSET 0 0 0
																}
															}
														}
													}
													JOINT Model21
													{
														OFFSET 9.5443 -0.745064 0.588936
														CHANNELS 3 Zrotation Xrotation Yrotation
														JOINT Model22
														{
															OFFSET 5.33978 0 0
															CHANNELS 3 Zrotation Xrotation Yrotation
															JOINT Model23
															{
																OFFSET 3.03619 1.14441e-005 0
																CHANNELS 3 Zrotation Xrotation Yrotation
																End Site
																{
																	OFFSET 0 0 0
																}
															}
														}
													}
													JOINT Model24
													{
														OFFSET 9.47759 1.51286 0.485119
														CHANNELS 3 Zrotation Xrotation Yrotation
														JOINT Model25
														{
															OFFSET 4.96136 1.14441e-005 0
															CHANNELS 3 Zrotation Xrotation Yrotation
															JOINT Model26
															{
																OFFSET 2.51965 0 0
																CHANNELS 3 Zrotation Xrotation Yrotation
																End Site
																{
																	OFFSET 0 0 0
																}
															}
														}
													}
													JOINT Model27
													{
														OFFSET 9.34248 3.34117 -0.239281
														CHANNELS 3 Zrotation Xrotation Yrotation
														JOINT Model28
														{
															OFFSET 3.28259 2.67029e-005 0
															CHANNELS 3 Zrotation Xrotation Yrotation
															JOINT Model29
															{
																OFFSET 2.1292 0 0
																CHANNELS 3 Zrotation Xrotation Yrotation
																End Site
																{
																	OFFSET 0 0 0
																}
															}
														}
													}
												}
											}
										}
									}
								}
							}
						}
					}
					JOINT Model30
					{
						OFFSET 10.8223 0.417904 -3.51107
						CHANNELS 3 Zrotation Xrotation Yrotation
						JOINT Model31
						{
							OFFSET 6.07943 0 0
							CHANNELS 3 Zrotation Xrotation Yrotation
							JOINT Model32
							{
								OFFSET 0.277412 -10.39 0.0512428
								CHANNELS 3 Zrotation Xrotation Yrotation
								JOINT Model33
								{
									OFFSET 3.4391 0.282043 -1.86678
									CHANNELS 3 Zrotation Xrotation Yrotation
									JOINT Model34
									{
										OFFSET -13.0269 0 0
										CHANNELS 3 Zrotation Xrotation Yrotation
										JOINT Model35
										{
											OFFSET -10.8866 0 0
											CHANNELS 3 Zrotation Xrotation Yrotation
											JOINT Model36
											{
												OFFSET -16.7317 0 0
												CHANNELS 3 Zrotation Xrotation Yrotation
												JOINT Model37
												{
													OFFSET -11.8292 0 0
													CHANNELS 3 Zrotation Xrotation Yrotation
													JOINT Model38
													{
														OFFSET -4.82751 3.73566 0.836517
														CHANNELS 3 Zrotation Xrotation Yrotation
														JOINT Model39
														{
															OFFSET -3.75311 0.0582848 0.0186424
															CHANNELS 3 Zrotation Xrotation Yrotation
															JOINT Model40
															{
																OFFSET -2.88688 -0.0192375 -0.014801
																CHANNELS 3 Zrotation Xrotation Yrotation
																End Site
																{
																	OFFSET 0 0 0
																}
															}
														}
													}
													JOINT Model41
													{
														OFFSET -9.72197 3.06459 -0.23877
														CHANNELS 3 Zrotation Xrotation Yrotation
														JOINT Model42
														{
															OFFSET -4.6113 0 0
															CHANNELS 3 Zrotation Xrotation Yrotation
															JOINT Model43
															{
																OFFSET -2.8969 0 0
																CHANNELS 3 Zrotation Xrotation Yrotation
																End Site
																{
																	OFFSET 0 0 0
																}
															}
														}
													}
													JOINT Model44
													{
														OFFSET -9.5443 0.745064 -0.58894
														CHANNELS 3 Zrotation Xrotation Yrotation
														JOINT Model45
														{
															OFFSET -5.33978 0 0
															CHANNELS 3 Zrotation Xrotation Yrotation
															JOINT Model46
															{
																OFFSET -3.03619 -1.52588e-005 0
																CHANNELS 3 Zrotation Xrotation Yrotation
																End Site
																{
																	OFFSET 0 0 0
																}
															}
														}
													}
													JOINT Model47
													{
														OFFSET -9.47759 -1.51286 -0.485123
														CHANNELS 3 Zrotation Xrotation Yrotation
														JOINT Model48
														{
															OFFSET -4.96136 -1.52588e-005 0
															CHANNELS 3 Zrotation Xrotation Yrotation
															JOINT Model49
															{
																OFFSET -2.51966 0 0
																CHANNELS 3 Zrotation Xrotation Yrotation
																End Site
																{
																	OFFSET 0 0 0
																}
															}
														}
													}
													JOINT Model50
													{
														OFFSET -9.34246 -3.34118 0.239277
														CHANNELS 3 Zrotation Xrotation Yrotation
														JOINT Model51
														{
															OFFSET -3.2826 -1.90735e-005 0
															CHANNELS 3 Zrotation Xrotation Yrotation
															JOINT Model52
															{
																OFFSET -2.1292 0 0
																CHANNELS 3 Zrotation Xrotation Yrotation
																End Site
																{
																	OFFSET 0 0 0
																}
															}
														}
													}
												}
											}
										}
									}
								}
							}
						}
					}
				}
			}
		}
	}
	JOINT Model53
	{
		OFFSET 4.38026 -2.14632 -1.11516
		CHANNELS 3 Zrotation Xrotation Yrotation
		JOINT Model54
		{
			OFFSET 0 0 4.94999
			CHANNELS 3 Zrotation Xrotation Yrotation
			JOINT Model55
			{
				OFFSET 18.5642 0 0
				CHANNELS 3 Zrotation Xrotation Yrotation
				JOINT Model56
				{
					OFFSET 21.2884 0 1.14441e-005
					CHANNELS 3 Zrotation Xrotation Yrotation
					JOINT Model57
					{
						OFFSET 30.261 0 0
						CHANNELS 3 Zrotation Xrotation Yrotation
						JOINT Model58
						{
							OFFSET 11.7259 0 0
							CHANNELS 3 Zrotation Xrotation Yrotation
							JOINT Model59
							{
								OFFSET 10.682 0 0
								CHANNELS 3 Zrotation Xrotation Yrotation
								End Site
								{
									OFFSET 0 0 0
								}
							}
						}
					}
				}
			}
		}
	}
	JOINT Model60
	{
		OFFSET -4.38026 -2.14632 -1.11516
		CHANNELS 3 Zrotation Xrotation Yrotation
		JOINT Model61
		{
			OFFSET 0 0 -4.94999
			CHANNELS 3 Zrotation Xrotation Yrotation
			JOINT Model62
			{
				OFFSET -18.5642 0 0
				CHANNELS 3 Zrotation Xrotation Yrotation
				JOINT Model63
				{
					OFFSET -21.2884 0 -1.14441e-005
					CHANNELS 3 Zrotation Xrotation Yrotation
					JOINT Model64
					{
						OFFSET -30.261 0 0
						CHANNELS 3 Zrotation Xrotation Yrotation
						JOINT Model65
						{
							OFFSET -11.7259 0 0
							CHANNELS 3 Zrotation Xrotation Yrotation
							JOINT Model66
							{
								OFFSET -10.682 0 0
								CHANNELS 3 Zrotation Xrotation Yrotation
								End Site
								{
									OFFSET 0 0 0
								}
							}
						}
					}
				}
			}
		}
	}
}
MOTION
Frames: 4
Frame Time: 0.033333
46.901 129.929 48.005 -100.779 -23.8955 -100.092 -180 -6.53164e-013 -90 8.70657 0.54668 -3.68873 17.4305 0.527494 -7.4178 17.4305 0.527911 -7.41793 -23.2293 15.5892 3.01637 5.30078 16.0931 -0.0664826 120.092 75.5343 58.4939 6.04568 -36.7696 -10.9668 -167.277 84.4999 48.8109 166.512 -17.7379 37.2414 1.04861e-005 -14.4121 2.46158e-005 -145.656 10.3946 0.349927 1.26669e-006 16.4516 1.653e-006 -13.3269 -6.80998 53.9785 -72.0648 39.0385 39.3397 33.3638 2.10362 14.835 0.588947 0.308273 6.35287 -99.6409 81.413 100.35 -0.0181409 2.77866e-005 -0.117315 -0.124139 0.00241113 -0.799296 -79.8382 79.5773 80.5374 -0.000225772 -0.000220915 2.21964e-005 -0.00095622 0.000122905 -2.73181e-005 -66.7416 80.4058 67.2171 -0.000437128 1.59534e-005 -2.73189e-005 -0.000136597 -0.000109281 -5.46392e-005 -6.42159 81.2158 8.01779 -0.000218562 1.69097e-005 0.000212141 0.000901591 -0.0001848 -0.000218565 -59.9282 75.5373 58.5147 15.445 32.0331 3.1408 -167.277 84.4999 48.8109 111.816 -7.47355 14.1818 -1.54265e-007 11.6996 3.23973e-005 -134.067 3.5126 0.438638 -2.21858e-006 5.81207 8.16294e-007 -0.0525891 0.00247543 -5.38853 -72.0648 39.0385 39.3397 33.3638 2.10361 14.835 0.588946 0.308273 6.35287 -99.6409 81.413 100.35 -0.0181409 3.00592e-005 -0.117315 -0.124139 0.00241111 -0.799296 -79.8382 79.5773 80.5374 -0.000260642 -0.000218585 2.35728e-005 -0.000956221 0.000122971 -2.73175e-005 -66.7416 80.4058 67.2171 -0.000437128 1.48624e-005 -2.73179e-005 -0.000136599 -0.000109309 -5.46377e-005 -6.42159 81.2158 8.01779 -0.000218561 1.95591e-005 0.000212302 0.00090159 -0.000191272 -0.000218559 0.00081454 0.56661 89.91 -12.9935 -11.0766 -19.9603 -1.21901e-006 -3.27436 -4.32791e-008 41.9613 5.21061 -0.0721193 2.17804e-007 7.73722 2.00201e-007 -63.8018 5.41787 -3.96507 -38.4128 -8.21824 0.0212472 -180 -0.566576 -90.09 -13.7093 0.503524 -12.119 3.22066e-006 8.74219 -2.03299e-007 51.9202 11.015 -0.12912 5.99333e-007 16.4278 1.06117e-006 -80.4036 7.78393 -4.50737 -35.5796 -0.000418193 -0.00605617 
47.0702 131.06 47.3008 -100.182 -23.7824 -99.349 -180 -6.53164e-013 -90 8.65306 0.500161 -3.78654 17.3203 0.423826 -7.60529 17.3203 0.424244 -7.60542 -22.2325 15.5643 3.10246 3.69128 16.0949 0.30817 120.092 75.5343 58.4939 6.30601 -36.6038 -10.8635 -167.277 84.4999 48.8109 168.693 -16.1219 37.8396 9.85791e-006 -12.9871 2.4467e-005 -145.5 10.9009 0.351926 1.24388e-006 17.2067 1.6596e-006 -13.2516 -6.72952 53.6919 -72.0648 39.0385 39.3397 33.3638 2.10362 14.835 0.588947 0.308273 6.35287 -99.6409 81.413 100.35 -0.0181409 2.77866e-005 -0.117315 -0.124139 0.00241113 -0.799296 -79.8382 79.5773 80.5374 -0.000225772 -0.000220915 2.21964e-005 -0.00095622 0.000122905 -2.73181e-005 -66.7416 80.4058 67.2171 -0.000437128 1.59534e-005 -2.73189e-005 -0.000136597 -0.000109281 -5.46392e-005 -6.42159 81.2158 8.01779 -0.000218562 1.69097e-005 0.000212141 0.000901591 -0.0001848 -0.000218565 -59.9282 75.5373 58.5147 16.1262 32.3814 2.90172 -167.277 84.4999 48.8109 113.885 -7.22299 15.6501 -6.72458e-007 12.594 3.25063e-005 -134.272 3.75728 0.43725 -2.22392e-006 6.18457 8.16852e-007 -0.0525891 0.00247543 -5.38853 -72.0648 39.0385 39.3397 33.3638 2.10361 14.835 0.588946 0.308273 6.35287 -99.6409 81.413 100.35 -0.0181409 3.00592e-005 -0.117315 -0.124139 0.00241111 -0.799296 -79.8382 79.5773 80.5374 -0.000260642 -0.000218585 2.35728e-005 -0.000956221 0.000122971 -2.73175e-005 -66.7416 80.4058 67.2171 -0.000437128 1.48624e-005 -2.73179e-005 -0.000136599 -0.000109309 -5.46377e-005 -6.42159 81.2158 8.01779 -0.000218561 1.95591e-005 0.000212302 0.00090159 -0.000191272 -0.000218559 0.00081454 0.56661 89.91 -13.0563 -10.8718 -19.9395 -1.21879e-006 -2.99563 -4.32676e-008 39.3772 4.96647 -0.366911 2.19077e-007 7.37579 2.00033e-007 -56.3106 2.33964 -2.08348 -41.3087 -14.3064 -0.728571 -180 -0.566576 -90.09 -13.7584 -1.20272 -12.4137 3.21221e-006 6.3762 -2.02188e-007 49.0673 11.5789 -0.527404 5.82828e-007 17.2788 1.06595e-006 -77.2382 7.76522 -4.65356 -36.0931 0.0053308 -0.0432554 
47.1241 133.065 46.0385 -98.7008 -24.3997 -97.1953 -180 -6.53164e-013 -90 8.35878 0.498441 -3.55513 16.7325 0.473705 -7.14504 16.7325 0.474124 -7.14516 -18.9402 16.0673 0.612047 0.238909 15.5172 2.11822 120.092 75.5343 58.4939 6.14504 -36.3274 -10.8086 -167.277 84.4999 48.8109 169.965 -15.3925 37.0663 9.47657e-006 -12.114 2.43842e-005 -145.991 11.1803 0.347878 1.23073e-006 17.6393 1.66354e-006 -12.4786 -6.26037 53.1485 -72.0648 39.0385 39.3397 33.3638 2.10362 14.835 0.588947 0.308273 6.35287 -99.6409 81.413 100.35 -0.0181409 2.77866e-005 -0.117315 -0.124139 0.00241113 -0.799296 -79.8382 79.5773 80.5374 -0.000225772 -0.000220915 2.21964e-005 -0.00095622 0.000122905 -2.73181e-005 -66.7416 80.4058 67.2171 -0.000437128 1.59534e-005 -2.73189e-005 -0.000136597 -0.000109281 -5.46392e-005 -6.42159 81.2158 8.01779 -0.000218562 1.69097e-005 0.000212141 0.000901591 -0.0001848 -0.000218565 -59.9282 75.5373 58.5147 17.9588 32.7906 2.16273 -167.277 84.4999 48.8109 116.446 -7.29029 17.9867 -1.0405e-006 13.2256 3.25885e-005 -133.93 3.8559 0.439839 -2.22591e-006 6.32328 8.17069e-007 -0.0525891 0.00247543 -5.38853 -72.0648 39.0385 39.3397 33.3638 2.10361 14.835 0.588946 0.308273 6.35287 -99.6409 81.413 100.35 -0.0181409 3.00592e-005 -0.117315 -0.124139 0.00241111 -0.799296 -79.8382 79.5773 80.5374 -0.000260642 -0.000218585 2.35728e-005 -0.000956221 0.000122971 -2.73175e-005 -66.7416 80.4058 67.2171 -0.000437128 1.48624e-005 -2.73179e-005 -0.000136599 -0.000109309 -5.46377e-005 -6.42159 81.2158 8.01779 -0.000218561 1.95591e-005 0.000212302 0.00090159 -0.000191272 -0.000218559 0.00081454 0.56661 89.91 -13.824 -11.2767 -21.0948 -1.21886e-006 -3.07822 -4.32709e-008 34.0278 5.15038 -0.914056 2.18067e-007 7.66261 2.00165e-007 -41.6849 -2.11908 2.00963 -53.7535 -9.82508 -3.69234 -180 -0.566576 -90.09 -17.5626 -3.02464 -11.4449 3.19797e-006 2.34108 -2.01105e-007 48.9737 12.0253 -0.0111496 5.6975e-007 17.9476 1.06991e-006 -59.6936 7.90079 -5.67354 -49.8493 0.845186 -0.88448 
47.1749 135.379 44.3914 -96.7035 -25.5475 -94.621 -180 -6.53164e-013 -90 7.95274 0.485052 -3.26447 15.9204 0.512797 -6.56474 15.9204 0.513217 -6.56486 -15.4441 16.3673 -2.24643 -3.14471 14.6541 4.01699 120.092 75.5343 58.4939 5.99016 -35.8822 -10.6988 -167.277 84.4999 48.8109 169.815 -16.1563 35.202 9.67622e-006 -12.5718 2.44268e-005 -147.454 11.0963 0.33451 1.23333e-006 17.5539 1.66276e-006 -11.7509 -5.81373 52.5267 -72.0648 39.0385 39.3397 33.3638 2.10362 14.835 0.588947 0.308273 6.35287 -99.6409 81.413 100.35 -0.0181409 2.77866e-005 -0.117315 -0.124139 0.00241113 -0.799296 -79.8382 79.5773 80.5374 -0.000225772 -0.000220915 2.21964e-005 -0.00095622 0.000122905 -2.73181e-005 -66.7416 80.4058 67.2171 -0.000437128 1.59534e-005 -2.73189e-005 -0.000136597 -0.000109281 -5.46392e-005 -6.42159 81.2158 8.01779 -0.000218562 1.69097e-005 0.000212141 0.000901591 -0.0001848 -0.000218565 -59.9282 75.5373 58.5147 19.6446 33.2925 1.49133 -167.277 84.4999 48.8109 118.778 -7.54061 19.9155 -1.07554e-006 13.2855 3.25966e-005 -133.688 3.81214 0.441596 -2.22487e-006 6.25115 8.16956e-007 -0.0525891 0.00247543 -5.38853 -72.0648 39.0385 39.3397 33.3638 2.10361 14.835 0.588946 0.308273 6.35287 -99.6409 81.413 100.35 -0.0181409 3.00592e-005 -0.117315 -0.124139 0.00241111 -0.799296 -79.8382 79.5773 80.5374 -0.000260642 -0.000218585 2.35728e-005 -0.000956221 0.000122971 -2.73175e-005 -66.7416 80.4058 67.2171 -0.000437128 1.48624e-005 -2.73179e-005 -0.000136599 -0.000109309 -5.46377e-005 -6.42159 81.2158 8.01779 -0.000218561 1.95591e-005 0.000212302 0.00090159 -0.000191272 -0.000218559 0.00081454 0.56661 89.91 -17.3226 -11.2775 -23.5312 -1.21858e-006 -2.71489 -4.3257e-008 33.4453 4.18865 -1.15241 2.23131e-007 6.22144 1.99553e-007 -35.4232 -6.08799 6.4421 -48.9247 -5.60687 -1.83611 -180 -0.566576 -90.09 -21.5755 -3.42901 -10.843 3.1923e-006 0.724792 -2.00953e-007 46.1981 9.41267 2.34848 6.44831e-007 14.044 1.04921e-006 -38.3589 -3.46869 3.54696 -65.1851 12.3718 3.55737 
